G75*
%MOIN*%
%OFA0B0*%
%FSLAX24Y24*%
%IPPOS*%
%LPD*%
%AMOC8*
5,1,8,0,0,1.08239X$1,22.5*
%
%ADD10C,0.0030*%
%ADD11C,0.0080*%
D10*
X001536Y000633D02*
X001536Y000827D01*
X001585Y000875D01*
X001730Y000875D01*
X001730Y000585D01*
X001585Y000585D01*
X001536Y000633D01*
X001831Y000585D02*
X001831Y000875D01*
X002024Y000875D02*
X001831Y000585D01*
X002024Y000585D02*
X002024Y000875D01*
X002125Y000827D02*
X002174Y000875D01*
X002271Y000875D01*
X002319Y000827D01*
X002319Y000633D01*
X002271Y000585D01*
X002174Y000585D01*
X002125Y000633D01*
X002125Y000730D01*
X002222Y000730D01*
X002124Y001585D02*
X002027Y001682D01*
X002027Y001875D01*
X001926Y001875D02*
X001829Y001875D01*
X001878Y001875D02*
X001878Y001585D01*
X001926Y001585D02*
X001829Y001585D01*
X001730Y001585D02*
X001730Y001875D01*
X001536Y001585D01*
X001536Y001875D01*
X001536Y002585D02*
X001730Y002585D01*
X001633Y002585D02*
X001633Y002875D01*
X001730Y002778D01*
X001831Y002827D02*
X001831Y002633D01*
X001879Y002585D01*
X001976Y002585D01*
X002024Y002633D01*
X001831Y002827D01*
X001879Y002875D01*
X001976Y002875D01*
X002024Y002827D01*
X002024Y002633D01*
X002125Y002633D02*
X002125Y002682D01*
X002174Y002730D01*
X002319Y002730D01*
X002319Y002585D02*
X002174Y002585D01*
X002125Y002633D01*
X002174Y002730D02*
X002125Y002778D01*
X002125Y002827D01*
X002174Y002875D01*
X002319Y002875D01*
X002319Y002585D01*
X002221Y001875D02*
X002221Y001682D01*
X002124Y001585D01*
X002174Y003585D02*
X002319Y003585D01*
X002319Y003875D01*
X002174Y003875D01*
X002125Y003827D01*
X002125Y003778D01*
X002174Y003730D01*
X002319Y003730D01*
X002174Y003730D02*
X002125Y003682D01*
X002125Y003633D01*
X002174Y003585D01*
X002024Y003633D02*
X001831Y003827D01*
X001831Y003633D01*
X001879Y003585D01*
X001976Y003585D01*
X002024Y003633D01*
X002024Y003827D01*
X001976Y003875D01*
X001879Y003875D01*
X001831Y003827D01*
X001730Y003827D02*
X001681Y003875D01*
X001585Y003875D01*
X001536Y003827D01*
X001536Y003778D01*
X001730Y003585D01*
X001536Y003585D01*
X001536Y004535D02*
X001730Y004535D01*
X001536Y004728D01*
X001536Y004777D01*
X001585Y004825D01*
X001681Y004825D01*
X001730Y004777D01*
X001831Y004777D02*
X002024Y004583D01*
X001976Y004535D01*
X001879Y004535D01*
X001831Y004583D01*
X001831Y004777D01*
X001879Y004825D01*
X001976Y004825D01*
X002024Y004777D01*
X002024Y004583D01*
X002125Y004535D02*
X002125Y004728D01*
X002222Y004825D01*
X002319Y004728D01*
X002319Y004535D01*
X002319Y004680D02*
X002125Y004680D01*
X002125Y005585D02*
X002125Y005778D01*
X002222Y005875D01*
X002319Y005778D01*
X002319Y005585D01*
X002319Y005730D02*
X002125Y005730D01*
X002024Y005633D02*
X001831Y005827D01*
X001831Y005633D01*
X001879Y005585D01*
X001976Y005585D01*
X002024Y005633D01*
X002024Y005827D01*
X001976Y005875D01*
X001879Y005875D01*
X001831Y005827D01*
X001730Y005778D02*
X001633Y005875D01*
X001633Y005585D01*
X001730Y005585D02*
X001536Y005585D01*
X001585Y006585D02*
X001536Y006633D01*
X001585Y006585D02*
X001681Y006585D01*
X001730Y006633D01*
X001730Y006827D01*
X001681Y006875D01*
X001585Y006875D01*
X001536Y006827D01*
X001831Y006827D02*
X001879Y006875D01*
X001976Y006875D01*
X002024Y006827D01*
X002024Y006633D01*
X001976Y006585D01*
X001879Y006585D01*
X001831Y006633D01*
X002125Y006682D02*
X002125Y006875D01*
X002125Y006682D02*
X002222Y006585D01*
X002319Y006682D01*
X002319Y006875D01*
X002271Y007585D02*
X002174Y007585D01*
X002125Y007633D01*
X002125Y007730D01*
X002222Y007730D01*
X002319Y007633D02*
X002271Y007585D01*
X002319Y007633D02*
X002319Y007827D01*
X002271Y007875D01*
X002174Y007875D01*
X002125Y007827D01*
X002024Y007875D02*
X001831Y007585D01*
X001831Y007875D01*
X001730Y007875D02*
X001585Y007875D01*
X001536Y007827D01*
X001536Y007633D01*
X001585Y007585D01*
X001730Y007585D01*
X001730Y007875D01*
X002024Y007875D02*
X002024Y007585D01*
X003708Y007650D02*
X003901Y007650D01*
X003901Y007698D02*
X003804Y007795D01*
X003708Y007698D01*
X003708Y007505D01*
X003901Y007505D02*
X003901Y007698D01*
X004002Y007795D02*
X004002Y007505D01*
X004196Y007505D02*
X004196Y007795D01*
X004099Y007698D01*
X004002Y007795D01*
X004297Y007795D02*
X004297Y007505D01*
X004394Y007602D01*
X004490Y007505D01*
X004490Y007795D01*
X004592Y007747D02*
X004592Y007650D01*
X004640Y007602D01*
X004785Y007602D01*
X004785Y007505D02*
X004785Y007795D01*
X004640Y007795D01*
X004592Y007747D01*
X004688Y006795D02*
X004592Y006698D01*
X004592Y006505D01*
X004490Y006505D02*
X004394Y006505D01*
X004442Y006505D02*
X004442Y006795D01*
X004490Y006795D02*
X004394Y006795D01*
X004294Y006795D02*
X004100Y006505D01*
X004100Y006795D01*
X003999Y006747D02*
X003951Y006795D01*
X003854Y006795D01*
X003806Y006747D01*
X003806Y006698D01*
X003999Y006505D01*
X003806Y006505D01*
X004294Y006505D02*
X004294Y006795D01*
X004592Y006650D02*
X004785Y006650D01*
X004785Y006698D02*
X004688Y006795D01*
X004785Y006698D02*
X004785Y006505D01*
X004688Y005795D02*
X004592Y005698D01*
X004592Y005505D01*
X004490Y005505D02*
X004394Y005505D01*
X004442Y005505D02*
X004442Y005795D01*
X004490Y005795D02*
X004394Y005795D01*
X004294Y005795D02*
X004100Y005505D01*
X004100Y005795D01*
X003999Y005698D02*
X003903Y005795D01*
X003903Y005505D01*
X003999Y005505D02*
X003806Y005505D01*
X004294Y005505D02*
X004294Y005795D01*
X004592Y005650D02*
X004785Y005650D01*
X004785Y005698D02*
X004688Y005795D01*
X004785Y005698D02*
X004785Y005505D01*
X004737Y004745D02*
X004640Y004745D01*
X004592Y004697D01*
X004490Y004745D02*
X004297Y004745D01*
X004394Y004745D02*
X004394Y004455D01*
X004196Y004455D02*
X004196Y004745D01*
X004051Y004745D01*
X004002Y004697D01*
X004002Y004648D01*
X004051Y004600D01*
X004196Y004600D01*
X004196Y004455D02*
X004051Y004455D01*
X004002Y004503D01*
X004002Y004552D01*
X004051Y004600D01*
X003901Y004697D02*
X003804Y004600D01*
X003804Y004455D01*
X003804Y004600D02*
X003708Y004697D01*
X003708Y004745D01*
X003901Y004745D02*
X003901Y004697D01*
X004592Y004552D02*
X004592Y004503D01*
X004640Y004455D01*
X004737Y004455D01*
X004785Y004503D01*
X004737Y004600D02*
X004640Y004600D01*
X004592Y004552D01*
X004737Y004600D02*
X004785Y004648D01*
X004785Y004697D01*
X004737Y004745D01*
X004785Y003795D02*
X004640Y003795D01*
X004592Y003747D01*
X004592Y003698D01*
X004640Y003650D01*
X004785Y003650D01*
X004785Y003505D02*
X004640Y003505D01*
X004592Y003553D01*
X004592Y003602D01*
X004640Y003650D01*
X004785Y003505D02*
X004785Y003795D01*
X004490Y003795D02*
X004394Y003795D01*
X004442Y003795D02*
X004442Y003505D01*
X004490Y003505D02*
X004394Y003505D01*
X004294Y003505D02*
X004294Y003795D01*
X004100Y003505D01*
X004100Y003795D01*
X003999Y003698D02*
X003903Y003795D01*
X003903Y003505D01*
X003999Y003505D02*
X003806Y003505D01*
X003854Y002795D02*
X003951Y002795D01*
X003999Y002747D01*
X004100Y002795D02*
X004100Y002505D01*
X004294Y002795D01*
X004294Y002505D01*
X004394Y002505D02*
X004490Y002505D01*
X004442Y002505D02*
X004442Y002795D01*
X004490Y002795D02*
X004394Y002795D01*
X004592Y002747D02*
X004592Y002698D01*
X004640Y002650D01*
X004785Y002650D01*
X004785Y002505D02*
X004640Y002505D01*
X004592Y002553D01*
X004592Y002602D01*
X004640Y002650D01*
X004592Y002747D02*
X004640Y002795D01*
X004785Y002795D01*
X004785Y002505D01*
X004785Y001795D02*
X004640Y001795D01*
X004592Y001747D01*
X004592Y001650D01*
X004640Y001602D01*
X004785Y001602D01*
X004785Y001505D02*
X004785Y001795D01*
X004490Y001795D02*
X004490Y001505D01*
X004394Y001602D01*
X004297Y001505D01*
X004297Y001795D01*
X004196Y001795D02*
X004099Y001698D01*
X004002Y001795D01*
X004002Y001505D01*
X003901Y001505D02*
X003756Y001505D01*
X003708Y001553D01*
X003708Y001602D01*
X003756Y001650D01*
X003901Y001650D01*
X003901Y001505D02*
X003901Y001795D01*
X003756Y001795D01*
X003708Y001747D01*
X003708Y001698D01*
X003756Y001650D01*
X004196Y001505D02*
X004196Y001795D01*
X003999Y002505D02*
X003806Y002505D01*
X003999Y002505D02*
X003806Y002698D01*
X003806Y002747D01*
X003854Y002795D01*
X004051Y000795D02*
X004196Y000795D01*
X004196Y000505D01*
X004051Y000505D01*
X004002Y000553D01*
X004002Y000747D01*
X004051Y000795D01*
X004297Y000795D02*
X004297Y000505D01*
X004490Y000795D01*
X004490Y000505D01*
X004592Y000553D02*
X004592Y000650D01*
X004688Y000650D01*
X004592Y000553D02*
X004640Y000505D01*
X004737Y000505D01*
X004785Y000553D01*
X004785Y000747D01*
X004737Y000795D01*
X004640Y000795D01*
X004592Y000747D01*
D11*
X000400Y000190D02*
X000150Y000440D01*
X000150Y000940D01*
X000400Y001190D01*
X000150Y001440D01*
X000150Y001940D01*
X000400Y002190D01*
X000150Y002440D01*
X000150Y002940D01*
X000400Y003190D01*
X000150Y003440D01*
X000150Y003940D01*
X000400Y004190D01*
X000150Y004440D01*
X000150Y004940D01*
X000400Y005190D01*
X000150Y005440D01*
X000150Y005940D01*
X000400Y006190D01*
X000150Y006440D01*
X000150Y006940D01*
X000400Y007190D01*
X000150Y007440D01*
X000150Y007940D01*
X000400Y008190D01*
X000900Y008190D01*
X001150Y007940D01*
X001150Y007440D01*
X000900Y007190D01*
X001150Y006940D01*
X001150Y006440D01*
X000900Y006190D01*
X001150Y005940D01*
X001150Y005440D01*
X000900Y005190D01*
X001150Y004940D01*
X001150Y004440D01*
X000900Y004190D01*
X001150Y003940D01*
X001150Y003440D01*
X000900Y003190D01*
X001150Y002940D01*
X001150Y002440D01*
X000900Y002190D01*
X001150Y001940D01*
X001150Y001440D01*
X000900Y001190D01*
X001150Y000940D01*
X001150Y000440D01*
X000900Y000190D01*
X000400Y000190D01*
X005150Y000440D02*
X005150Y000940D01*
X005400Y001190D01*
X005150Y001440D01*
X005150Y001940D01*
X005400Y002190D01*
X005150Y002440D01*
X005150Y002940D01*
X005400Y003190D01*
X005150Y003440D01*
X005150Y003940D01*
X005400Y004190D01*
X005150Y004440D01*
X005150Y004940D01*
X005400Y005190D01*
X005150Y005440D01*
X005150Y005940D01*
X005400Y006190D01*
X005150Y006440D01*
X005150Y006940D01*
X005400Y007190D01*
X005150Y007440D01*
X005150Y007940D01*
X005400Y008190D01*
X005900Y008190D01*
X006150Y007940D01*
X006150Y007440D01*
X005900Y007190D01*
X006150Y006940D01*
X006150Y006440D01*
X005900Y006190D01*
X006150Y005940D01*
X006150Y005440D01*
X005900Y005190D01*
X006150Y004940D01*
X006150Y004440D01*
X005900Y004190D01*
X006150Y003940D01*
X006150Y003440D01*
X005900Y003190D01*
X006150Y002940D01*
X006150Y002440D01*
X005900Y002190D01*
X006150Y001940D01*
X006150Y001440D01*
X005900Y001190D01*
X006150Y000940D01*
X006150Y000440D01*
X005900Y000190D01*
X005400Y000190D01*
X005150Y000440D01*
M02*
