G75*
%MOIN*%
%OFA0B0*%
%FSLAX24Y24*%
%IPPOS*%
%LPD*%
%AMOC8*
5,1,8,0,0,1.08239X$1,22.5*
%
%ADD10C,0.0010*%
%ADD11R,0.0433X0.0394*%
%ADD12R,0.0591X0.0157*%
%ADD13R,0.0740X0.0740*%
%ADD14C,0.0740*%
%ADD15R,0.0551X0.0630*%
%ADD16R,0.0248X0.0327*%
%ADD17R,0.0551X0.0394*%
%ADD18C,0.0100*%
%ADD19C,0.0160*%
%ADD20C,0.0400*%
%ADD21C,0.0120*%
D10*
X000150Y000440D02*
X000150Y007940D01*
X000152Y007970D01*
X000157Y008000D01*
X000166Y008029D01*
X000179Y008056D01*
X000194Y008082D01*
X000213Y008106D01*
X000234Y008127D01*
X000258Y008146D01*
X000284Y008161D01*
X000311Y008174D01*
X000340Y008183D01*
X000370Y008188D01*
X000400Y008190D01*
X005900Y008190D01*
X005930Y008188D01*
X005960Y008183D01*
X005989Y008174D01*
X006016Y008161D01*
X006042Y008146D01*
X006066Y008127D01*
X006087Y008106D01*
X006106Y008082D01*
X006121Y008056D01*
X006134Y008029D01*
X006143Y008000D01*
X006148Y007970D01*
X006150Y007940D01*
X006150Y000440D01*
X006148Y000410D01*
X006143Y000380D01*
X006134Y000351D01*
X006121Y000324D01*
X006106Y000298D01*
X006087Y000274D01*
X006066Y000253D01*
X006042Y000234D01*
X006016Y000219D01*
X005989Y000206D01*
X005960Y000197D01*
X005930Y000192D01*
X005900Y000190D01*
X000400Y000190D01*
X000370Y000192D01*
X000340Y000197D01*
X000311Y000206D01*
X000284Y000219D01*
X000258Y000234D01*
X000234Y000253D01*
X000213Y000274D01*
X000194Y000298D01*
X000179Y000324D01*
X000166Y000351D01*
X000157Y000380D01*
X000152Y000410D01*
X000150Y000440D01*
D11*
X003596Y000500D03*
X004304Y000500D03*
X002504Y006440D03*
X001796Y006440D03*
X003796Y006490D03*
X004504Y006490D03*
D12*
X004577Y005597D03*
X004577Y005342D03*
X004577Y005086D03*
X004577Y004830D03*
X004577Y004574D03*
X004577Y004318D03*
X004577Y004062D03*
X004577Y003806D03*
X004577Y003550D03*
X004577Y003294D03*
X004577Y003038D03*
X004577Y002783D03*
X001723Y002783D03*
X001723Y003038D03*
X001723Y003294D03*
X001723Y003550D03*
X001723Y003806D03*
X001723Y004062D03*
X001723Y004318D03*
X001723Y004574D03*
X001723Y004830D03*
X001723Y005086D03*
X001723Y005342D03*
X001723Y005597D03*
D13*
X000650Y007690D03*
D14*
X000650Y006690D03*
X000650Y005690D03*
X000650Y004690D03*
X000650Y003690D03*
X000650Y002690D03*
X000650Y001690D03*
X000650Y000690D03*
X005650Y000690D03*
X005650Y001690D03*
X005650Y002690D03*
X005650Y003690D03*
X005650Y004690D03*
X005650Y005690D03*
X005650Y006690D03*
X005650Y007690D03*
D15*
X003951Y007240D03*
X002849Y007240D03*
D16*
X003497Y001210D03*
X004403Y001210D03*
D17*
X002713Y001264D03*
X002713Y000516D03*
X001847Y000890D03*
D18*
X002097Y001257D02*
X002097Y001543D01*
X002059Y001635D01*
X001989Y001705D01*
X001792Y001902D01*
X001700Y001940D01*
X001131Y001940D01*
X001108Y001996D01*
X001014Y002090D01*
X001050Y002090D01*
X001480Y002520D01*
X002350Y002530D01*
X002350Y003290D01*
X001480Y003290D01*
X001480Y003550D01*
X002350Y003550D01*
X002350Y004820D01*
X002091Y004820D01*
X002089Y004823D01*
X001480Y004823D01*
X001480Y005093D01*
X002089Y005093D01*
X002096Y005100D01*
X002300Y005100D01*
X002300Y005990D01*
X001550Y005990D01*
X001150Y006390D01*
X001110Y006390D01*
X001177Y006550D01*
X002118Y006550D01*
X002118Y006173D01*
X002217Y006073D01*
X002512Y006073D01*
X002550Y006034D01*
X002550Y004640D01*
X002588Y004548D01*
X002658Y004478D01*
X002758Y004378D01*
X002850Y004340D01*
X004112Y004340D01*
X004112Y004169D01*
X004211Y004069D01*
X004943Y004069D01*
X004962Y004088D01*
X005284Y004088D01*
X005232Y004036D01*
X004962Y004036D01*
X004943Y004055D01*
X004211Y004055D01*
X004112Y003955D01*
X004112Y003288D01*
X003568Y003288D01*
X003564Y003300D01*
X003460Y003404D01*
X003324Y003460D01*
X003176Y003460D01*
X003040Y003404D01*
X002936Y003300D01*
X002880Y003164D01*
X002880Y003016D01*
X002936Y002880D01*
X003040Y002776D01*
X003176Y002720D01*
X003226Y002720D01*
X003223Y002713D01*
X003223Y001514D01*
X003159Y001514D01*
X003159Y001531D01*
X003059Y001631D01*
X002367Y001631D01*
X002267Y001531D01*
X002267Y001182D01*
X002193Y001257D01*
X002097Y001257D01*
X002097Y001274D02*
X002267Y001274D01*
X002267Y001372D02*
X002097Y001372D01*
X002097Y001471D02*
X002267Y001471D01*
X002305Y001569D02*
X002086Y001569D01*
X002026Y001668D02*
X003223Y001668D01*
X003223Y001569D02*
X003121Y001569D01*
X003223Y001766D02*
X001928Y001766D01*
X001829Y001865D02*
X003223Y001865D01*
X003223Y001963D02*
X001121Y001963D01*
X001042Y002062D02*
X003223Y002062D01*
X003223Y002160D02*
X001120Y002160D01*
X001219Y002259D02*
X003223Y002259D01*
X003223Y002357D02*
X001317Y002357D01*
X001416Y002456D02*
X003223Y002456D01*
X003223Y002554D02*
X002350Y002554D01*
X002350Y002653D02*
X003223Y002653D01*
X003102Y002751D02*
X002350Y002751D01*
X002350Y002850D02*
X002967Y002850D01*
X002908Y002948D02*
X002350Y002948D01*
X002350Y003047D02*
X002880Y003047D01*
X002880Y003145D02*
X002350Y003145D01*
X002350Y003244D02*
X002913Y003244D01*
X002979Y003342D02*
X001480Y003342D01*
X001480Y003441D02*
X003129Y003441D01*
X003371Y003441D02*
X004112Y003441D01*
X004112Y003539D02*
X001480Y003539D01*
X001305Y003736D02*
X000285Y003736D01*
X000285Y003638D02*
X001204Y003638D01*
X001104Y003539D02*
X000285Y003539D01*
X000285Y003441D02*
X001003Y003441D01*
X000903Y003342D02*
X000285Y003342D01*
X000285Y003308D02*
X000285Y004090D01*
X002060Y004090D01*
X002070Y003790D01*
X001360Y003790D01*
X000860Y003300D01*
X000285Y003308D01*
X000285Y003050D02*
X002060Y003050D01*
X002070Y002750D01*
X001380Y002750D01*
X000980Y002350D01*
X000285Y002350D01*
X000285Y003050D01*
X000285Y003047D02*
X002060Y003047D01*
X002063Y002948D02*
X000285Y002948D01*
X000285Y002850D02*
X002067Y002850D01*
X002070Y002751D02*
X000285Y002751D01*
X000285Y002653D02*
X001283Y002653D01*
X001184Y002554D02*
X000285Y002554D01*
X000285Y002456D02*
X001086Y002456D01*
X000987Y002357D02*
X000285Y002357D01*
X001131Y001440D02*
X001108Y001384D01*
X000956Y001232D01*
X000757Y001150D01*
X000543Y001150D01*
X000344Y001232D01*
X000325Y001251D01*
X000325Y000440D01*
X000328Y000421D01*
X000347Y000387D01*
X000381Y000368D01*
X000400Y000365D01*
X002267Y000365D01*
X002267Y000598D01*
X002193Y000523D01*
X001501Y000523D01*
X001401Y000623D01*
X001401Y001157D01*
X001501Y001257D01*
X001597Y001257D01*
X001597Y001390D01*
X001546Y001440D01*
X001131Y001440D01*
X001096Y001372D02*
X001597Y001372D01*
X001597Y001274D02*
X000997Y001274D01*
X000818Y001175D02*
X001419Y001175D01*
X001401Y001077D02*
X000325Y001077D01*
X000325Y000978D02*
X001401Y000978D01*
X001401Y000880D02*
X000325Y000880D01*
X000325Y000781D02*
X001401Y000781D01*
X001401Y000683D02*
X000325Y000683D01*
X000325Y000584D02*
X001440Y000584D01*
X002254Y000584D02*
X002267Y000584D01*
X002267Y000486D02*
X000325Y000486D01*
X000347Y000387D02*
X002267Y000387D01*
X003723Y001512D02*
X003723Y002540D01*
X004205Y002540D01*
X004211Y002534D01*
X004524Y002534D01*
X004527Y002533D01*
X004627Y002533D01*
X004630Y002534D01*
X004790Y002534D01*
X004790Y001675D01*
X004925Y001540D01*
X005005Y001460D01*
X005161Y001460D01*
X005192Y001384D01*
X005344Y001232D01*
X005543Y001150D01*
X005757Y001150D01*
X005956Y001232D01*
X005975Y001251D01*
X005975Y000440D01*
X005972Y000421D01*
X005953Y000387D01*
X005919Y000368D01*
X005900Y000365D01*
X003982Y000365D01*
X003982Y000610D01*
X004323Y000610D01*
X004363Y000607D01*
X004373Y000610D01*
X004382Y000610D01*
X004420Y000625D01*
X004458Y000638D01*
X004465Y000644D01*
X004474Y000648D01*
X004503Y000676D01*
X004535Y000704D01*
X004544Y000708D01*
X004573Y000736D01*
X004603Y000763D01*
X004608Y000771D01*
X004615Y000778D01*
X004630Y000815D01*
X004648Y000851D01*
X004649Y000861D01*
X004653Y000870D01*
X004653Y000910D01*
X004655Y000934D01*
X004697Y000976D01*
X004697Y001444D01*
X004597Y001543D01*
X004208Y001543D01*
X004109Y001444D01*
X004109Y001110D01*
X003791Y001110D01*
X003791Y001444D01*
X003723Y001512D01*
X003723Y001569D02*
X004896Y001569D01*
X004797Y001668D02*
X003723Y001668D01*
X003723Y001766D02*
X004790Y001766D01*
X004790Y001865D02*
X003723Y001865D01*
X003723Y001963D02*
X004790Y001963D01*
X004790Y002062D02*
X003723Y002062D01*
X003723Y002160D02*
X004790Y002160D01*
X004790Y002259D02*
X003723Y002259D01*
X003723Y002357D02*
X004790Y002357D01*
X004790Y002456D02*
X003723Y002456D01*
X003521Y003342D02*
X004112Y003342D01*
X004112Y003638D02*
X002350Y003638D01*
X002350Y003736D02*
X004112Y003736D01*
X004112Y003835D02*
X002350Y003835D01*
X002350Y003933D02*
X004112Y003933D01*
X004188Y004032D02*
X002350Y004032D01*
X002350Y004130D02*
X004151Y004130D01*
X004112Y004229D02*
X002350Y004229D01*
X002350Y004327D02*
X004112Y004327D01*
X004200Y005840D02*
X004200Y006385D01*
X004182Y006428D01*
X004182Y006755D01*
X004297Y006755D01*
X004397Y006855D01*
X004397Y007625D01*
X004297Y007725D01*
X003605Y007725D01*
X003506Y007625D01*
X003506Y006855D01*
X003506Y006854D01*
X003409Y006757D01*
X003409Y006223D01*
X003509Y006123D01*
X003700Y006123D01*
X003700Y005840D01*
X003372Y005840D01*
X003324Y005860D01*
X003176Y005860D01*
X003050Y005808D01*
X003050Y006134D01*
X003051Y006182D01*
X003050Y006184D01*
X003050Y006185D01*
X003032Y006230D01*
X003014Y006274D01*
X003013Y006276D01*
X003012Y006277D01*
X002978Y006311D01*
X002891Y006401D01*
X002891Y006707D01*
X002791Y006807D01*
X002726Y006807D01*
X002712Y006842D01*
X002642Y006912D01*
X002542Y007012D01*
X002450Y007050D01*
X001054Y007050D01*
X000956Y007148D01*
X000757Y007230D01*
X000543Y007230D01*
X000344Y007148D01*
X000325Y007129D01*
X000325Y007940D01*
X000328Y007959D01*
X000347Y007993D01*
X000381Y008012D01*
X000400Y008015D01*
X005211Y008015D01*
X005192Y007996D01*
X005161Y007920D01*
X005025Y007920D01*
X004890Y007785D01*
X004790Y007685D01*
X004790Y005846D01*
X004630Y005846D01*
X004627Y005847D01*
X004527Y005847D01*
X004524Y005846D01*
X004211Y005846D01*
X004205Y005840D01*
X004200Y005840D01*
X004200Y005903D02*
X004790Y005903D01*
X004790Y006002D02*
X004200Y006002D01*
X004200Y006100D02*
X004790Y006100D01*
X004790Y006199D02*
X004200Y006199D01*
X004200Y006297D02*
X004790Y006297D01*
X004790Y006396D02*
X004196Y006396D01*
X004182Y006494D02*
X004790Y006494D01*
X004790Y006593D02*
X004182Y006593D01*
X004182Y006691D02*
X004790Y006691D01*
X004790Y006790D02*
X004332Y006790D01*
X004397Y006888D02*
X004790Y006888D01*
X004790Y006987D02*
X004397Y006987D01*
X004397Y007085D02*
X004790Y007085D01*
X004790Y007184D02*
X004397Y007184D01*
X004397Y007282D02*
X004790Y007282D01*
X004790Y007381D02*
X004397Y007381D01*
X004397Y007479D02*
X004790Y007479D01*
X004790Y007578D02*
X004397Y007578D01*
X004346Y007676D02*
X004790Y007676D01*
X004879Y007775D02*
X000325Y007775D01*
X000325Y007676D02*
X003556Y007676D01*
X003506Y007578D02*
X000325Y007578D01*
X000325Y007479D02*
X003506Y007479D01*
X003506Y007381D02*
X000325Y007381D01*
X000325Y007282D02*
X003506Y007282D01*
X003506Y007184D02*
X000870Y007184D01*
X001019Y007085D02*
X003506Y007085D01*
X003506Y006987D02*
X002567Y006987D01*
X002666Y006888D02*
X003506Y006888D01*
X003441Y006790D02*
X002809Y006790D01*
X002891Y006691D02*
X003409Y006691D01*
X003409Y006593D02*
X002891Y006593D01*
X002891Y006494D02*
X003409Y006494D01*
X003409Y006396D02*
X002896Y006396D01*
X002992Y006297D02*
X003409Y006297D01*
X003433Y006199D02*
X003045Y006199D01*
X003050Y006100D02*
X003700Y006100D01*
X003700Y006002D02*
X003050Y006002D01*
X003050Y005903D02*
X003700Y005903D01*
X002612Y004524D02*
X002350Y004524D01*
X002350Y004623D02*
X002557Y004623D01*
X002550Y004721D02*
X002350Y004721D01*
X002350Y004820D02*
X002550Y004820D01*
X002550Y004918D02*
X001480Y004918D01*
X001480Y005017D02*
X002550Y005017D01*
X002550Y005115D02*
X002300Y005115D01*
X002300Y005214D02*
X002550Y005214D01*
X002550Y005312D02*
X002300Y005312D01*
X002300Y005411D02*
X002550Y005411D01*
X002550Y005509D02*
X002300Y005509D01*
X002300Y005608D02*
X002550Y005608D01*
X002550Y005706D02*
X002300Y005706D01*
X002300Y005805D02*
X002550Y005805D01*
X002550Y005903D02*
X002300Y005903D01*
X002191Y006100D02*
X001440Y006100D01*
X001538Y006002D02*
X002550Y006002D01*
X002118Y006199D02*
X001341Y006199D01*
X001243Y006297D02*
X002118Y006297D01*
X002118Y006396D02*
X001113Y006396D01*
X001153Y006494D02*
X002118Y006494D01*
X002060Y005680D02*
X002050Y005330D01*
X000285Y005330D01*
X000285Y006090D01*
X000950Y006090D01*
X001350Y005690D01*
X002060Y005680D01*
X002058Y005608D02*
X000285Y005608D01*
X000285Y005706D02*
X001334Y005706D01*
X001235Y005805D02*
X000285Y005805D01*
X000285Y005903D02*
X001137Y005903D01*
X001038Y006002D02*
X000285Y006002D01*
X000285Y005509D02*
X002055Y005509D01*
X002052Y005411D02*
X000285Y005411D01*
X000285Y005090D02*
X000870Y005090D01*
X001370Y004600D01*
X002060Y004600D01*
X002060Y004290D01*
X000285Y004290D01*
X000285Y005090D01*
X000285Y005017D02*
X000945Y005017D01*
X001045Y004918D02*
X000285Y004918D01*
X000285Y004820D02*
X001146Y004820D01*
X001247Y004721D02*
X000285Y004721D01*
X000285Y004623D02*
X001347Y004623D01*
X002060Y004524D02*
X000285Y004524D01*
X000285Y004426D02*
X002060Y004426D01*
X002060Y004327D02*
X000285Y004327D01*
X000285Y004032D02*
X002062Y004032D01*
X002065Y003933D02*
X000285Y003933D01*
X000285Y003835D02*
X002069Y003835D01*
X002350Y004426D02*
X002711Y004426D01*
X003765Y001471D02*
X004135Y001471D01*
X004109Y001372D02*
X003791Y001372D01*
X003791Y001274D02*
X004109Y001274D01*
X004109Y001175D02*
X003791Y001175D01*
X003982Y000584D02*
X005975Y000584D01*
X005975Y000486D02*
X003982Y000486D01*
X003982Y000387D02*
X005953Y000387D01*
X005975Y000683D02*
X004510Y000683D01*
X004616Y000781D02*
X005975Y000781D01*
X005975Y000880D02*
X004653Y000880D01*
X004697Y000978D02*
X005975Y000978D01*
X005975Y001077D02*
X004697Y001077D01*
X004697Y001175D02*
X005482Y001175D01*
X005303Y001274D02*
X004697Y001274D01*
X004697Y001372D02*
X005204Y001372D01*
X004994Y001471D02*
X004670Y001471D01*
X005818Y001175D02*
X005975Y001175D01*
X004978Y007873D02*
X000325Y007873D01*
X000335Y007972D02*
X005182Y007972D01*
X000430Y007184D02*
X000325Y007184D01*
X000325Y001175D02*
X000482Y001175D01*
D19*
X000650Y001690D02*
X001650Y001690D01*
X001847Y001493D01*
X001847Y000890D01*
X002713Y000516D02*
X003580Y000516D01*
X003596Y000500D01*
X003596Y000806D01*
X003650Y000860D01*
X004333Y000860D01*
X004403Y000920D01*
X004403Y001210D01*
X003497Y001210D02*
X003443Y001264D01*
X002713Y001264D01*
X003473Y001234D02*
X003473Y002663D01*
X003600Y002790D01*
X004570Y002790D01*
X004577Y002783D01*
X004577Y003038D01*
X003302Y003038D01*
X003250Y003090D01*
X002900Y004590D02*
X002800Y004690D01*
X002800Y006136D01*
X002504Y006440D01*
X002500Y006444D01*
X002500Y006700D01*
X002400Y006800D01*
X000750Y006800D01*
X000650Y006690D01*
X001723Y005086D02*
X001723Y004830D01*
X001723Y003550D02*
X001723Y003294D01*
X002900Y004590D02*
X004650Y004590D01*
X004634Y004574D01*
X004577Y004574D01*
X004570Y005590D02*
X003950Y005590D01*
X003950Y006336D01*
X003796Y006490D01*
X003796Y007084D01*
X003951Y007240D01*
X003950Y005590D02*
X003350Y005590D01*
X003250Y005490D01*
X004570Y005590D02*
X004577Y005597D01*
X003473Y001234D02*
X003497Y001210D01*
D20*
X003250Y003090D03*
X002630Y004140D03*
X003250Y005490D03*
X003890Y005090D03*
D21*
X004304Y005086D01*
X004577Y005086D01*
X004577Y005342D02*
X004922Y005342D01*
X005020Y005440D01*
X005020Y007590D01*
X005120Y007690D01*
X005650Y007690D01*
X005650Y005690D02*
X005650Y005540D01*
X004940Y004830D01*
X004577Y004830D01*
X004577Y004318D02*
X005278Y004318D01*
X005650Y004690D01*
X005534Y003806D02*
X005650Y003690D01*
X005534Y003806D02*
X004577Y003806D01*
X004577Y003550D02*
X004990Y003550D01*
X005220Y003320D01*
X005220Y002820D01*
X005350Y002690D01*
X005650Y002690D01*
X005020Y003170D02*
X004896Y003294D01*
X004577Y003294D01*
X005020Y003170D02*
X005020Y001770D01*
X005100Y001690D01*
X005650Y001690D01*
M02*
