G75*
%MOIN*%
%OFA0B0*%
%FSLAX24Y24*%
%IPPOS*%
%LPD*%
%AMOC8*
5,1,8,0,0,1.08239X$1,22.5*
%
%ADD10R,0.0740X0.0740*%
%ADD11C,0.0740*%
%ADD12C,0.0100*%
%ADD13C,0.0400*%
%ADD14C,0.0160*%
%ADD15C,0.0120*%
D10*
X000650Y007690D03*
D11*
X000650Y000690D03*
X000650Y001690D03*
X000650Y002690D03*
X000650Y003690D03*
X000650Y004690D03*
X000650Y005690D03*
X000650Y006690D03*
X005650Y006690D03*
X005650Y005690D03*
X005650Y004690D03*
X005650Y003690D03*
X005650Y002690D03*
X005650Y001690D03*
X005650Y000690D03*
X005650Y007690D03*
D12*
X005446Y007190D02*
X005344Y007232D01*
X005192Y007384D01*
X005110Y007583D01*
X005110Y007797D01*
X005192Y007996D01*
X005211Y008015D01*
X001170Y008015D01*
X001170Y007740D01*
X000700Y007740D01*
X000700Y007640D01*
X001170Y007640D01*
X001170Y007300D01*
X001160Y007262D01*
X001140Y007228D01*
X001112Y007200D01*
X001078Y007180D01*
X001040Y007170D01*
X000902Y007170D01*
X000956Y007148D01*
X001108Y006996D01*
X001190Y006797D01*
X001190Y006583D01*
X001108Y006384D01*
X000956Y006232D01*
X000854Y006190D01*
X000956Y006148D01*
X001108Y005996D01*
X001190Y005797D01*
X001190Y005583D01*
X001108Y005384D01*
X000956Y005232D01*
X000854Y005190D01*
X000956Y005148D01*
X001108Y004996D01*
X001190Y004797D01*
X001190Y004583D01*
X001108Y004384D01*
X000956Y004232D01*
X000854Y004190D01*
X000956Y004148D01*
X001108Y003996D01*
X001190Y003797D01*
X001190Y003583D01*
X001108Y003384D01*
X000956Y003232D01*
X000854Y003190D01*
X000956Y003148D01*
X001108Y002996D01*
X001190Y002797D01*
X001190Y002583D01*
X001108Y002384D01*
X000956Y002232D01*
X000854Y002190D01*
X000956Y002148D01*
X001108Y001996D01*
X001190Y001797D01*
X001190Y001583D01*
X001108Y001384D01*
X000956Y001232D01*
X000828Y001179D01*
X000850Y001172D01*
X000923Y001135D01*
X000989Y001087D01*
X001047Y001029D01*
X001095Y000963D01*
X001132Y000890D01*
X001157Y000812D01*
X001169Y000740D01*
X000700Y000740D01*
X000700Y000640D01*
X001169Y000640D01*
X001157Y000568D01*
X001132Y000490D01*
X001095Y000417D01*
X001057Y000365D01*
X005243Y000365D01*
X005205Y000417D01*
X005168Y000490D01*
X005143Y000568D01*
X005131Y000640D01*
X005600Y000640D01*
X005600Y000740D01*
X005131Y000740D01*
X005143Y000812D01*
X005168Y000890D01*
X005205Y000963D01*
X005253Y001029D01*
X005311Y001087D01*
X005377Y001135D01*
X005450Y001172D01*
X005472Y001179D01*
X005344Y001232D01*
X005192Y001384D01*
X005110Y001583D01*
X005110Y001797D01*
X005192Y001996D01*
X005344Y002148D01*
X005446Y002190D01*
X005344Y002232D01*
X005192Y002384D01*
X005110Y002583D01*
X005110Y002797D01*
X005192Y002996D01*
X005344Y003148D01*
X005446Y003190D01*
X005344Y003232D01*
X005192Y003384D01*
X005110Y003583D01*
X005110Y003797D01*
X005192Y003996D01*
X005344Y004148D01*
X005446Y004190D01*
X005344Y004232D01*
X005192Y004384D01*
X005110Y004583D01*
X005110Y004797D01*
X005192Y004996D01*
X005344Y005148D01*
X005446Y005190D01*
X005344Y005232D01*
X005290Y005286D01*
X005290Y005155D01*
X005155Y005020D01*
X004995Y004860D01*
X004805Y004860D01*
X004183Y004860D01*
X004100Y004776D01*
X003964Y004720D01*
X003816Y004720D01*
X003680Y004776D01*
X003576Y004880D01*
X003520Y005016D01*
X003520Y005164D01*
X003576Y005300D01*
X003680Y005404D01*
X003816Y005460D01*
X003964Y005460D01*
X004100Y005404D01*
X004183Y005320D01*
X004805Y005320D01*
X004830Y005345D01*
X004830Y006495D01*
X005110Y006775D01*
X005110Y006797D01*
X005192Y006996D01*
X005344Y007148D01*
X005446Y007190D01*
X005430Y007184D02*
X001084Y007184D01*
X001019Y007085D02*
X005281Y007085D01*
X005188Y006987D02*
X001112Y006987D01*
X001152Y006888D02*
X005148Y006888D01*
X005110Y006790D02*
X001190Y006790D01*
X001190Y006691D02*
X005026Y006691D01*
X004927Y006593D02*
X001190Y006593D01*
X001153Y006494D02*
X004830Y006494D01*
X004830Y006396D02*
X001113Y006396D01*
X001021Y006297D02*
X004830Y006297D01*
X004830Y006199D02*
X000875Y006199D01*
X001004Y006100D02*
X004830Y006100D01*
X004830Y006002D02*
X001102Y006002D01*
X001146Y005903D02*
X004830Y005903D01*
X004830Y005805D02*
X003458Y005805D01*
X003460Y005804D02*
X003324Y005860D01*
X003176Y005860D01*
X003040Y005804D01*
X002936Y005700D01*
X002880Y005564D01*
X002880Y005416D01*
X002936Y005280D01*
X003000Y005217D01*
X003000Y003363D01*
X002936Y003300D01*
X002880Y003164D01*
X002880Y003016D01*
X002936Y002880D01*
X003040Y002776D01*
X003176Y002720D01*
X003324Y002720D01*
X003460Y002776D01*
X003564Y002880D01*
X003620Y003016D01*
X003620Y003164D01*
X003564Y003300D01*
X003500Y003363D01*
X003500Y005217D01*
X003564Y005280D01*
X003620Y005416D01*
X003620Y005564D01*
X003564Y005700D01*
X003460Y005804D01*
X003557Y005706D02*
X004830Y005706D01*
X004830Y005608D02*
X003602Y005608D01*
X003620Y005509D02*
X004830Y005509D01*
X004830Y005411D02*
X004083Y005411D01*
X003697Y005411D02*
X003618Y005411D01*
X003589Y005312D02*
X003577Y005312D01*
X003541Y005214D02*
X003500Y005214D01*
X003500Y005115D02*
X003520Y005115D01*
X003520Y005017D02*
X003500Y005017D01*
X003500Y004918D02*
X003561Y004918D01*
X003500Y004820D02*
X003637Y004820D01*
X003500Y004721D02*
X003814Y004721D01*
X003966Y004721D02*
X005110Y004721D01*
X005110Y004623D02*
X003500Y004623D01*
X003500Y004524D02*
X005134Y004524D01*
X005175Y004426D02*
X003500Y004426D01*
X003500Y004327D02*
X005249Y004327D01*
X005353Y004229D02*
X003500Y004229D01*
X003500Y004130D02*
X005326Y004130D01*
X005228Y004032D02*
X003500Y004032D01*
X003500Y003933D02*
X005166Y003933D01*
X005125Y003835D02*
X003500Y003835D01*
X003500Y003736D02*
X005110Y003736D01*
X005110Y003638D02*
X003500Y003638D01*
X003500Y003539D02*
X005128Y003539D01*
X005169Y003441D02*
X003500Y003441D01*
X003521Y003342D02*
X005234Y003342D01*
X005333Y003244D02*
X003587Y003244D01*
X003620Y003145D02*
X005341Y003145D01*
X005243Y003047D02*
X003620Y003047D01*
X003592Y002948D02*
X005172Y002948D01*
X005132Y002850D02*
X003533Y002850D01*
X003398Y002751D02*
X005110Y002751D01*
X005110Y002653D02*
X001190Y002653D01*
X001190Y002751D02*
X003102Y002751D01*
X002967Y002850D02*
X001168Y002850D01*
X001128Y002948D02*
X002908Y002948D01*
X002880Y003047D02*
X001057Y003047D01*
X000959Y003145D02*
X002880Y003145D01*
X002913Y003244D02*
X000967Y003244D01*
X001066Y003342D02*
X002979Y003342D01*
X003000Y003441D02*
X001131Y003441D01*
X001172Y003539D02*
X003000Y003539D01*
X003000Y003638D02*
X001190Y003638D01*
X001190Y003736D02*
X003000Y003736D01*
X003000Y003835D02*
X001175Y003835D01*
X001134Y003933D02*
X003000Y003933D01*
X003000Y004032D02*
X001072Y004032D01*
X000974Y004130D02*
X003000Y004130D01*
X003000Y004229D02*
X000947Y004229D01*
X001051Y004327D02*
X003000Y004327D01*
X003000Y004426D02*
X001125Y004426D01*
X001166Y004524D02*
X003000Y004524D01*
X003000Y004623D02*
X001190Y004623D01*
X001190Y004721D02*
X003000Y004721D01*
X003000Y004820D02*
X001181Y004820D01*
X001140Y004918D02*
X003000Y004918D01*
X003000Y005017D02*
X001087Y005017D01*
X000989Y005115D02*
X003000Y005115D01*
X003000Y005214D02*
X000911Y005214D01*
X001036Y005312D02*
X002923Y005312D01*
X002882Y005411D02*
X001119Y005411D01*
X001160Y005509D02*
X002880Y005509D01*
X002898Y005608D02*
X001190Y005608D01*
X001190Y005706D02*
X002943Y005706D01*
X003042Y005805D02*
X001187Y005805D01*
X001165Y007282D02*
X005294Y007282D01*
X005196Y007381D02*
X001170Y007381D01*
X001170Y007479D02*
X005153Y007479D01*
X005112Y007578D02*
X001170Y007578D01*
X001170Y007775D02*
X005110Y007775D01*
X005110Y007676D02*
X000700Y007676D01*
X001170Y007873D02*
X005141Y007873D01*
X005182Y007972D02*
X001170Y007972D01*
X004143Y004820D02*
X005119Y004820D01*
X005160Y004918D02*
X005053Y004918D01*
X005152Y005017D02*
X005213Y005017D01*
X005250Y005115D02*
X005311Y005115D01*
X005290Y005214D02*
X005389Y005214D01*
X005122Y002554D02*
X001178Y002554D01*
X001137Y002456D02*
X005163Y002456D01*
X005219Y002357D02*
X001081Y002357D01*
X000982Y002259D02*
X005318Y002259D01*
X005374Y002160D02*
X000926Y002160D01*
X001042Y002062D02*
X005258Y002062D01*
X005179Y001963D02*
X001121Y001963D01*
X001162Y001865D02*
X005138Y001865D01*
X005110Y001766D02*
X001190Y001766D01*
X001190Y001668D02*
X005110Y001668D01*
X005116Y001569D02*
X001184Y001569D01*
X001144Y001471D02*
X005156Y001471D01*
X005204Y001372D02*
X001096Y001372D01*
X000997Y001274D02*
X005303Y001274D01*
X005460Y001175D02*
X000840Y001175D01*
X000999Y001077D02*
X005301Y001077D01*
X005216Y000978D02*
X001084Y000978D01*
X001135Y000880D02*
X005165Y000880D01*
X005138Y000781D02*
X001162Y000781D01*
X001160Y000584D02*
X005140Y000584D01*
X005171Y000486D02*
X001129Y000486D01*
X001073Y000387D02*
X005227Y000387D01*
X005600Y000683D02*
X000700Y000683D01*
D13*
X003250Y003090D03*
X002630Y004140D03*
X003250Y005490D03*
X003890Y005090D03*
D14*
X003250Y005490D02*
X003250Y003090D01*
D15*
X003890Y005090D02*
X004900Y005090D01*
X005060Y005250D01*
X005060Y006400D01*
X005350Y006690D01*
X005650Y006690D01*
M02*
